<svg width="24" height="24" viewBox="0 0 24 24" fill="none" xmlns="http://www.w3.org/2000/svg">
<path fill-rule="evenodd" clip-rule="evenodd" d="M11 5C11.55 5 12 5.45001 12 6V7.25C12 7.44 11.96 7.63 11.89 7.79999L9.63 13.09C9.40002 13.62 8.87 14 8.25 14H1.5C0.670044 14 0 13.33 0 12.5V6C0 5.59003 0.170044 5.21002 0.439941 4.94L5.38 0L6.17004 0.789978C6.37 1 6.5 1.28003 6.5 1.59003L6.47998 1.82001L5.81995 5H11ZM7.92004 12L10 7.13V7H3.35999L3.93005 4.28003L2 6.21002V12H7.92004ZM22.5 10H15.75C15.13 10 14.6 10.38 14.37 10.91L12.11 16.2C12.04 16.37 12 16.56 12 16.75V18C12 18.55 12.45 19 13 19H18.1801L17.52 22.18L17.5 22.42C17.5 22.73 17.63 23.01 17.83 23.22L18.62 24L23.5601 19.06C23.83 18.79 24 18.41 24 18V11.5C24 10.67 23.33 10 22.5 10ZM20.0699 19.72L22 17.79V12H16.08L14 16.87V17H20.64L20.0699 19.72Z" fill="white" opacity="0.8"/>
</svg>
