<svg width="571" height="513" viewBox="0 0 571 513" fill="none" xmlns="http://www.w3.org/2000/svg">
<path d="M292.428 1.11873L273.848 5.91492L44.9473 65.0051L26.3679 69.8013C17.3498 72.1402 9.6266 77.9645 4.89287 85.9964C0.159147 94.0284 -1.19857 103.612 1.11759 112.645L81.6817 425.378C84.0181 434.405 89.8364 442.137 97.86 446.875C105.884 451.614 115.457 452.973 124.481 450.655L124.529 450.642L390.493 381.984L390.541 381.972C399.559 379.633 407.282 373.809 412.016 365.777C416.749 357.745 418.107 348.161 415.791 339.128L335.227 26.3954C332.89 17.3678 327.072 9.63667 319.049 4.898C311.025 0.159341 301.451 -1.19981 292.428 1.11873Z" fill="#F2F2F2"/>
<path d="M294.954 10.9234L272.948 16.6042L50.8992 73.9254L28.8935 79.6061C22.4715 81.2716 16.9716 85.4192 13.6006 91.1389C10.2296 96.8587 9.26269 103.683 10.9121 110.116L91.4762 422.849C93.14 429.278 97.2833 434.783 102.997 438.158C108.711 441.532 115.529 442.5 121.954 440.849L122.002 440.837L387.966 372.179L388.015 372.166C394.437 370.501 399.936 366.353 403.307 360.633C406.678 354.914 407.645 348.089 405.996 341.657L325.432 28.9235C323.768 22.4948 319.624 16.9893 313.911 13.6148C308.197 10.2403 301.379 9.27237 294.954 10.9234Z" fill="white"/>
<path d="M278.337 112.195L143.793 146.927C142.29 147.315 140.695 147.089 139.358 146.3C138.022 145.511 137.053 144.222 136.666 142.718C136.278 141.213 136.503 139.617 137.292 138.279C138.08 136.941 139.368 135.971 140.87 135.583L275.415 100.851C276.917 100.464 278.511 100.691 279.847 101.48C281.182 102.27 282.15 103.558 282.537 105.061C282.924 106.565 282.7 108.161 281.912 109.498C281.125 110.836 279.839 111.806 278.337 112.195Z" fill="#F2F2F2"/>
<path d="M306.641 125.304L148.724 166.07C147.221 166.458 145.626 166.232 144.29 165.443C142.953 164.653 141.984 163.365 141.597 161.86C141.209 160.356 141.435 158.759 142.223 157.421C143.012 156.083 144.299 155.114 145.802 154.726L303.719 113.96C305.222 113.572 306.817 113.798 308.153 114.587C309.49 115.376 310.458 116.665 310.846 118.169C311.234 119.673 311.008 121.27 310.22 122.608C309.431 123.946 308.144 124.916 306.641 125.304Z" fill="#F2F2F2"/>
<path d="M300.437 197.982L165.893 232.715C165.149 232.907 164.374 232.95 163.613 232.843C162.852 232.735 162.12 232.478 161.458 232.088C160.796 231.697 160.218 231.179 159.756 230.565C159.294 229.95 158.957 229.25 158.765 228.505C158.574 227.761 158.53 226.985 158.638 226.223C158.745 225.462 159.001 224.729 159.392 224.066C159.782 223.404 160.299 222.825 160.913 222.362C161.527 221.9 162.226 221.563 162.97 221.371L297.515 186.638C298.259 186.446 299.034 186.403 299.795 186.51C300.555 186.618 301.288 186.875 301.949 187.265C302.611 187.656 303.19 188.174 303.652 188.788C304.114 189.403 304.45 190.103 304.642 190.848C304.834 191.593 304.878 192.368 304.77 193.13C304.663 193.891 304.406 194.624 304.016 195.287C303.625 195.949 303.108 196.528 302.494 196.991C301.88 197.453 301.181 197.79 300.437 197.982Z" fill="#F2F2F2"/>
<path d="M328.741 211.091L170.824 251.857C170.08 252.049 169.305 252.093 168.545 251.985C167.784 251.878 167.051 251.621 166.39 251.23C165.728 250.839 165.149 250.322 164.687 249.707C164.225 249.093 163.889 248.393 163.697 247.648C163.505 246.903 163.462 246.128 163.569 245.366C163.677 244.604 163.933 243.872 164.323 243.209C164.714 242.546 165.231 241.967 165.845 241.505C166.459 241.042 167.158 240.706 167.902 240.513L325.819 199.748C327.322 199.36 328.917 199.585 330.253 200.375C331.59 201.164 332.559 202.453 332.946 203.957C333.334 205.461 333.108 207.058 332.32 208.396C331.531 209.734 330.244 210.703 328.741 211.091Z" fill="#F2F2F2"/>
<path d="M322.537 283.77L187.993 318.502C186.49 318.889 184.896 318.663 183.56 317.873C182.225 317.084 181.257 315.796 180.869 314.292C180.482 312.788 180.707 311.192 181.495 309.855C182.282 308.517 183.569 307.547 185.07 307.158L319.615 272.426C321.118 272.038 322.713 272.264 324.049 273.053C325.386 273.842 326.355 275.131 326.742 276.635C327.13 278.14 326.904 279.736 326.116 281.074C325.327 282.412 324.04 283.382 322.537 283.77Z" fill="#F2F2F2"/>
<path d="M350.841 296.879L192.924 337.645C192.18 337.838 191.405 337.882 190.643 337.775C189.882 337.668 189.149 337.411 188.487 337.02C187.824 336.63 187.246 336.112 186.783 335.497C186.321 334.882 185.984 334.182 185.792 333.437C185.6 332.692 185.556 331.916 185.664 331.154C185.772 330.392 186.029 329.658 186.42 328.996C186.81 328.333 187.328 327.754 187.943 327.291C188.557 326.829 189.257 326.493 190.002 326.301L347.919 285.535C349.422 285.147 351.017 285.373 352.353 286.162C353.69 286.952 354.659 288.24 355.046 289.744C355.434 291.249 355.208 292.845 354.42 294.183C353.631 295.521 352.344 296.491 350.841 296.879Z" fill="#F2F2F2"/>
<path d="M120.824 182.54L73.2099 194.831C72.4893 195.017 71.7249 194.908 71.0842 194.53C70.4435 194.151 69.9789 193.534 69.7924 192.813L58.8626 150.386C58.6776 149.665 58.786 148.899 59.164 148.258C59.542 147.617 60.1587 147.152 60.8788 146.965L108.493 134.674C109.213 134.488 109.978 134.597 110.619 134.975C111.259 135.354 111.724 135.971 111.91 136.692L122.84 179.119C123.025 179.84 122.917 180.605 122.539 181.247C122.161 181.888 121.544 182.353 120.824 182.54Z" fill="#E6E6E6"/>
<path d="M142.924 268.328L95.3099 280.619C94.5893 280.804 93.8249 280.696 93.1842 280.317C92.5435 279.939 92.0789 279.322 91.8924 278.601L80.9626 236.174C80.7776 235.452 80.8861 234.687 81.2641 234.046C81.642 233.404 82.2587 232.939 82.9788 232.753L130.593 220.461C131.313 220.276 132.078 220.384 132.719 220.763C133.359 221.141 133.824 221.759 134.01 222.479L144.94 264.907C145.125 265.628 145.017 266.393 144.639 267.034C144.261 267.676 143.644 268.141 142.924 268.328Z" fill="#E6E6E6"/>
<path d="M165.024 354.115L117.41 366.407C116.689 366.592 115.925 366.483 115.284 366.105C114.643 365.726 114.179 365.109 113.992 364.388L103.063 321.961C102.878 321.24 102.986 320.475 103.364 319.833C103.742 319.192 104.359 318.727 105.079 318.54L152.693 306.249C153.413 306.064 154.178 306.172 154.819 306.55C155.459 306.929 155.924 307.546 156.11 308.267L167.04 350.694C167.225 351.415 167.117 352.181 166.739 352.822C166.361 353.463 165.744 353.928 165.024 354.115Z" fill="#E6E6E6"/>
<path d="M477.991 80.3923H203.227C193.911 80.4028 184.979 84.1121 178.392 90.7063C171.805 97.3005 168.099 106.241 168.089 115.567V438.531C168.099 447.857 171.805 456.797 178.392 463.392C184.979 469.986 193.911 473.695 203.227 473.705H477.991C487.307 473.695 496.238 469.986 502.826 463.392C509.413 456.797 513.118 447.857 513.129 438.531V115.567C513.118 106.241 509.413 97.3005 502.826 90.7063C496.238 84.1121 487.307 80.4028 477.991 80.3923Z" fill="#E6E6E6"/>
<path d="M477.991 90.5183H203.227C196.593 90.5258 190.232 93.1672 185.541 97.8631C180.85 102.559 178.212 108.926 178.204 115.567V438.531C178.212 445.172 180.85 451.539 185.541 456.235C190.232 460.931 196.593 463.572 203.227 463.58H477.991C484.625 463.572 490.986 460.931 495.676 456.235C500.367 451.539 503.006 445.172 503.013 438.531V115.567C503.006 108.926 500.367 102.559 495.676 97.8632C490.986 93.1673 484.625 90.5258 477.991 90.5183Z" fill="white"/>
<path d="M506.857 513C542.282 513 571 484.252 571 448.791C571 413.329 542.282 384.581 506.857 384.581C471.432 384.581 442.714 413.329 442.714 448.791C442.714 484.252 471.432 513 506.857 513Z" fill="#3D4A84"/>
<path d="M537.534 440.416H515.224V418.082C515.224 415.861 514.342 413.73 512.773 412.16C511.204 410.589 509.076 409.707 506.857 409.707C504.638 409.707 502.51 410.589 500.941 412.16C499.372 413.73 498.491 415.861 498.491 418.082V440.416H476.18C473.961 440.416 471.833 441.298 470.264 442.869C468.695 444.439 467.814 446.569 467.814 448.791C467.814 451.012 468.695 453.142 470.264 454.713C471.833 456.283 473.961 457.166 476.18 457.166H498.491V479.5C498.491 481.721 499.372 483.851 500.941 485.422C502.51 486.992 504.638 487.875 506.857 487.875C509.076 487.875 511.204 486.992 512.773 485.422C514.342 483.851 515.224 481.721 515.224 479.5V457.166H537.534C539.753 457.166 541.881 456.283 543.45 454.713C545.019 453.142 545.901 451.012 545.901 448.791C545.901 446.569 545.019 444.439 543.45 442.869C541.881 441.298 539.753 440.416 537.534 440.416Z" fill="white"/>
<path d="M436.639 267.986H297.693C296.924 267.987 296.162 267.836 295.451 267.542C294.741 267.248 294.095 266.817 293.551 266.273C293.007 265.729 292.575 265.083 292.281 264.372C291.986 263.661 291.835 262.899 291.835 262.129C291.835 261.359 291.986 260.597 292.281 259.886C292.575 259.175 293.007 258.529 293.551 257.985C294.095 257.441 294.741 257.009 295.451 256.715C296.162 256.421 296.924 256.271 297.693 256.271H436.639C438.19 256.273 439.676 256.891 440.772 257.989C441.868 259.088 442.484 260.577 442.484 262.129C442.484 263.681 441.868 265.17 440.772 266.269C439.676 267.367 438.19 267.985 436.639 267.986Z" fill="#E6E6E6"/>
<path d="M460.776 287.755H297.693C296.924 287.756 296.162 287.605 295.451 287.311C294.741 287.017 294.095 286.586 293.551 286.042C293.007 285.498 292.575 284.852 292.281 284.141C291.986 283.43 291.835 282.668 291.835 281.898C291.835 281.128 291.986 280.366 292.281 279.655C292.575 278.944 293.007 278.298 293.551 277.754C294.095 277.21 294.741 276.778 295.451 276.485C296.162 276.191 296.924 276.04 297.693 276.041H460.776C462.328 276.041 463.816 276.658 464.914 277.756C466.011 278.855 466.627 280.344 466.627 281.898C466.627 283.451 466.011 284.941 464.914 286.04C463.816 287.138 462.328 287.755 460.776 287.755Z" fill="#E6E6E6"/>
<path d="M436.639 356.581H297.693C296.924 356.582 296.162 356.431 295.451 356.137C294.741 355.843 294.095 355.411 293.551 354.867C293.007 354.323 292.575 353.677 292.281 352.966C291.986 352.255 291.835 351.493 291.835 350.723C291.835 349.953 291.986 349.191 292.281 348.48C292.575 347.769 293.007 347.123 293.551 346.579C294.095 346.035 294.741 345.604 295.451 345.31C296.162 345.016 296.924 344.865 297.693 344.866H436.639C438.191 344.866 439.679 345.483 440.776 346.581C441.874 347.68 442.49 349.17 442.49 350.723C442.49 352.277 441.874 353.767 440.776 354.865C439.679 355.964 438.191 356.581 436.639 356.581Z" fill="#E6E6E6"/>
<path d="M460.776 376.349H297.693C296.924 376.35 296.162 376.199 295.451 375.905C294.741 375.611 294.095 375.18 293.551 374.636C293.007 374.092 292.575 373.446 292.281 372.735C291.986 372.024 291.835 371.262 291.835 370.492C291.835 369.722 291.986 368.96 292.281 368.249C292.575 367.538 293.007 366.892 293.551 366.348C294.095 365.804 294.741 365.373 295.451 365.079C296.162 364.785 296.924 364.634 297.693 364.635H460.776C461.545 364.634 462.307 364.785 463.017 365.079C463.728 365.373 464.374 365.804 464.918 366.348C465.462 366.892 465.893 367.538 466.188 368.249C466.482 368.96 466.634 369.722 466.634 370.492C466.634 371.262 466.482 372.024 466.188 372.735C465.893 373.446 465.462 374.092 464.918 374.636C464.374 375.18 463.728 375.611 463.017 375.905C462.307 376.199 461.545 376.35 460.776 376.349Z" fill="#E6E6E6"/>
<path d="M266.568 296.73H217.396C216.652 296.729 215.939 296.433 215.413 295.906C214.887 295.379 214.591 294.666 214.59 293.921V250.106C214.591 249.361 214.887 248.647 215.413 248.121C215.939 247.594 216.652 247.298 217.396 247.297H266.568C267.312 247.298 268.025 247.594 268.551 248.121C269.077 248.647 269.373 249.361 269.373 250.106V293.921C269.373 294.666 269.077 295.379 268.551 295.906C268.025 296.433 267.312 296.729 266.568 296.73Z" fill="#E6E6E6"/>
<path d="M266.568 385.324H217.396C216.652 385.323 215.939 385.027 215.413 384.5C214.887 383.974 214.591 383.26 214.59 382.515V338.7C214.591 337.955 214.887 337.241 215.413 336.715C215.939 336.188 216.652 335.892 217.396 335.891H266.568C267.312 335.892 268.025 336.188 268.551 336.715C269.077 337.241 269.373 337.955 269.373 338.7V382.515C269.373 383.26 269.077 383.974 268.551 384.5C268.025 385.027 267.312 385.323 266.568 385.324Z" fill="#E6E6E6"/>
<path d="M436.793 169.364H334.354C332.802 169.364 331.313 168.746 330.216 167.648C329.119 166.549 328.502 165.06 328.502 163.506C328.502 161.953 329.119 160.463 330.216 159.364C331.313 158.266 332.802 157.649 334.354 157.649H436.793C438.345 157.649 439.833 158.266 440.931 159.364C442.028 160.463 442.645 161.953 442.645 163.506C442.645 165.06 442.028 166.549 440.931 167.648C439.833 168.746 438.345 169.364 436.793 169.364Z" fill="#CCCCCC"/>
<path d="M460.93 189.132H334.354C333.585 189.132 332.824 188.981 332.114 188.687C331.404 188.392 330.759 187.961 330.216 187.417C329.673 186.873 329.242 186.227 328.948 185.517C328.654 184.806 328.502 184.044 328.502 183.275C328.502 182.506 328.654 181.744 328.948 181.033C329.242 180.323 329.673 179.677 330.216 179.133C330.759 178.589 331.404 178.158 332.114 177.863C332.824 177.569 333.585 177.417 334.354 177.417H460.93C462.482 177.417 463.97 178.035 465.068 179.133C466.165 180.232 466.782 181.721 466.782 183.275C466.782 184.828 466.165 186.318 465.068 187.417C463.97 188.515 462.482 189.132 460.93 189.132Z" fill="#CCCCCC"/>
<path d="M311.682 213.09H217.242C216.498 213.089 215.785 212.793 215.259 212.266C214.733 211.74 214.437 211.026 214.436 210.281V136.5C214.437 135.755 214.733 135.041 215.259 134.514C215.785 133.988 216.498 133.692 217.242 133.691H311.682C312.426 133.692 313.139 133.988 313.665 134.514C314.191 135.041 314.487 135.755 314.488 136.5V210.281C314.487 211.026 314.191 211.74 313.665 212.266C313.139 212.793 312.426 213.089 311.682 213.09Z" fill="#3D4A84"/>
</svg>
